<svg width="294" height="30" viewBox="0 0 294 30" fill="none" xmlns="http://www.w3.org/2000/svg">
<path d="M19.5906 24.32V29H0.0786221V3.8H19.1226V8.48H5.87462V13.952H17.5746V18.488H5.87462V24.32H19.5906ZM41.0463 9.632V29H35.7183V26.696C34.9743 27.536 34.0863 28.184 33.0543 28.64C32.0223 29.072 30.9063 29.288 29.7063 29.288C27.1623 29.288 25.1463 28.556 23.6583 27.092C22.1703 25.628 21.4263 23.456 21.4263 20.576V9.632H27.0423V19.748C27.0423 22.868 28.3503 24.428 30.9663 24.428C32.3103 24.428 33.3903 23.996 34.2063 23.132C35.0223 22.244 35.4303 20.936 35.4303 19.208V9.632H41.0463ZM49.4532 12.188C50.1252 11.252 51.0252 10.544 52.1532 10.064C53.3052 9.584 54.6252 9.344 56.1132 9.344V14.528C55.4892 14.48 55.0692 14.456 54.8532 14.456C53.2452 14.456 51.9852 14.912 51.0732 15.824C50.1612 16.712 49.7052 18.056 49.7052 19.856V29H44.0892V9.632H49.4532V12.188ZM66.3327 29.288C64.2927 29.288 62.4567 28.868 60.8247 28.028C59.2167 27.164 57.9567 25.976 57.0447 24.464C56.1327 22.952 55.6767 21.236 55.6767 19.316C55.6767 17.396 56.1327 15.68 57.0447 14.168C57.9567 12.656 59.2167 11.48 60.8247 10.64C62.4567 9.776 64.2927 9.344 66.3327 9.344C68.3727 9.344 70.1967 9.776 71.8047 10.64C73.4127 11.48 74.6727 12.656 75.5847 14.168C76.4967 15.68 76.9527 17.396 76.9527 19.316C76.9527 21.236 76.4967 22.952 75.5847 24.464C74.6727 25.976 73.4127 27.164 71.8047 28.028C70.1967 28.868 68.3727 29.288 66.3327 29.288ZM66.3327 24.68C67.7727 24.68 68.9487 24.2 69.8607 23.24C70.7967 22.256 71.2647 20.948 71.2647 19.316C71.2647 17.684 70.7967 16.388 69.8607 15.428C68.9487 14.444 67.7727 13.952 66.3327 13.952C64.8927 13.952 63.7047 14.444 62.7687 15.428C61.8327 16.388 61.3647 17.684 61.3647 19.316C61.3647 20.948 61.8327 22.256 62.7687 23.24C63.7047 24.2 64.8927 24.68 66.3327 24.68ZM104.006 16.004H109.334V26.228C107.966 27.26 106.382 28.052 104.582 28.604C102.782 29.156 100.97 29.432 99.1458 29.432C96.5298 29.432 94.1778 28.88 92.0898 27.776C90.0018 26.648 88.3578 25.1 87.1578 23.132C85.9818 21.14 85.3938 18.896 85.3938 16.4C85.3938 13.904 85.9818 11.672 87.1578 9.704C88.3578 7.712 90.0138 6.164 92.1258 5.06C94.2378 3.932 96.6138 3.368 99.2538 3.368C101.462 3.368 103.466 3.74 105.266 4.484C107.066 5.228 108.578 6.308 109.802 7.724L106.058 11.18C104.258 9.284 102.086 8.336 99.5418 8.336C97.9338 8.336 96.5058 8.672 95.2578 9.344C94.0098 10.016 93.0378 10.964 92.3418 12.188C91.6458 13.412 91.2978 14.816 91.2978 16.4C91.2978 17.96 91.6458 19.352 92.3418 20.576C93.0378 21.8 93.9978 22.76 95.2218 23.456C96.4698 24.128 97.8858 24.464 99.4698 24.464C101.15 24.464 102.662 24.104 104.006 23.384V16.004ZM121.411 29.288C119.371 29.288 117.535 28.868 115.903 28.028C114.295 27.164 113.035 25.976 112.123 24.464C111.211 22.952 110.755 21.236 110.755 19.316C110.755 17.396 111.211 15.68 112.123 14.168C113.035 12.656 114.295 11.48 115.903 10.64C117.535 9.776 119.371 9.344 121.411 9.344C123.451 9.344 125.275 9.776 126.883 10.64C128.491 11.48 129.751 12.656 130.663 14.168C131.575 15.68 132.031 17.396 132.031 19.316C132.031 21.236 131.575 22.952 130.663 24.464C129.751 25.976 128.491 27.164 126.883 28.028C125.275 28.868 123.451 29.288 121.411 29.288ZM121.411 24.68C122.851 24.68 124.027 24.2 124.939 23.24C125.875 22.256 126.343 20.948 126.343 19.316C126.343 17.684 125.875 16.388 124.939 15.428C124.027 14.444 122.851 13.952 121.411 13.952C119.971 13.952 118.783 14.444 117.847 15.428C116.911 16.388 116.443 17.684 116.443 19.316C116.443 20.948 116.911 22.256 117.847 23.24C118.783 24.2 119.971 24.68 121.411 24.68ZM142.841 29.288C140.801 29.288 138.965 28.868 137.333 28.028C135.725 27.164 134.465 25.976 133.553 24.464C132.641 22.952 132.185 21.236 132.185 19.316C132.185 17.396 132.641 15.68 133.553 14.168C134.465 12.656 135.725 11.48 137.333 10.64C138.965 9.776 140.801 9.344 142.841 9.344C144.881 9.344 146.705 9.776 148.313 10.64C149.921 11.48 151.181 12.656 152.093 14.168C153.005 15.68 153.461 17.396 153.461 19.316C153.461 21.236 153.005 22.952 152.093 24.464C151.181 25.976 149.921 27.164 148.313 28.028C146.705 28.868 144.881 29.288 142.841 29.288ZM142.841 24.68C144.281 24.68 145.457 24.2 146.369 23.24C147.305 22.256 147.773 20.948 147.773 19.316C147.773 17.684 147.305 16.388 146.369 15.428C145.457 14.444 144.281 13.952 142.841 13.952C141.401 13.952 140.213 14.444 139.277 15.428C138.341 16.388 137.873 17.684 137.873 19.316C137.873 20.948 138.341 22.256 139.277 23.24C140.213 24.2 141.401 24.68 142.841 24.68ZM174.783 2.288V29H169.419V26.768C168.027 28.448 166.011 29.288 163.371 29.288C161.547 29.288 159.891 28.88 158.403 28.064C156.939 27.248 155.787 26.084 154.947 24.572C154.107 23.06 153.687 21.308 153.687 19.316C153.687 17.324 154.107 15.572 154.947 14.06C155.787 12.548 156.939 11.384 158.403 10.568C159.891 9.752 161.547 9.344 163.371 9.344C165.843 9.344 167.775 10.124 169.167 11.684V2.288H174.783ZM164.343 24.68C165.759 24.68 166.935 24.2 167.871 23.24C168.807 22.256 169.275 20.948 169.275 19.316C169.275 17.684 168.807 16.388 167.871 15.428C166.935 14.444 165.759 13.952 164.343 13.952C162.903 13.952 161.715 14.444 160.779 15.428C159.843 16.388 159.375 17.684 159.375 19.316C159.375 20.948 159.843 22.256 160.779 23.24C161.715 24.2 162.903 24.68 164.343 24.68ZM184.337 29.288C182.729 29.288 181.157 29.096 179.621 28.712C178.085 28.304 176.861 27.8 175.949 27.2L177.821 23.168C178.685 23.72 179.729 24.176 180.953 24.536C182.177 24.872 183.377 25.04 184.553 25.04C186.929 25.04 188.117 24.452 188.117 23.276C188.117 22.724 187.793 22.328 187.145 22.088C186.497 21.848 185.501 21.644 184.157 21.476C182.573 21.236 181.265 20.96 180.233 20.648C179.201 20.336 178.301 19.784 177.533 18.992C176.789 18.2 176.417 17.072 176.417 15.608C176.417 14.384 176.765 13.304 177.461 12.368C178.181 11.408 179.213 10.664 180.557 10.136C181.925 9.608 183.533 9.344 185.381 9.344C186.749 9.344 188.105 9.5 189.449 9.812C190.817 10.1 191.945 10.508 192.833 11.036L190.961 15.032C189.257 14.072 187.397 13.592 185.381 13.592C184.181 13.592 183.281 13.76 182.681 14.096C182.081 14.432 181.781 14.864 181.781 15.392C181.781 15.992 182.105 16.412 182.753 16.652C183.401 16.892 184.433 17.12 185.849 17.336C187.433 17.6 188.729 17.888 189.737 18.2C190.745 18.488 191.621 19.028 192.365 19.82C193.109 20.612 193.481 21.716 193.481 23.132C193.481 24.332 193.121 25.4 192.401 26.336C191.681 27.272 190.625 28.004 189.233 28.532C187.865 29.036 186.233 29.288 184.337 29.288ZM202.821 9.632H208.437V29H202.821V9.632ZM205.629 6.932C204.597 6.932 203.757 6.632 203.109 6.032C202.461 5.432 202.137 4.688 202.137 3.8C202.137 2.912 202.461 2.168 203.109 1.568C203.757 0.967998 204.597 0.667998 205.629 0.667998C206.661 0.667998 207.501 0.955998 208.149 1.532C208.797 2.108 209.121 2.828 209.121 3.692C209.121 4.628 208.797 5.408 208.149 6.032C207.501 6.632 206.661 6.932 205.629 6.932ZM223.261 9.344C225.661 9.344 227.593 10.064 229.057 11.504C230.545 12.944 231.289 15.08 231.289 17.912V29H225.673V18.776C225.673 17.24 225.337 16.1 224.665 15.356C223.993 14.588 223.021 14.204 221.749 14.204C220.333 14.204 219.205 14.648 218.365 15.536C217.525 16.4 217.105 17.696 217.105 19.424V29H211.489V9.632H216.853V11.9C217.597 11.084 218.521 10.46 219.625 10.028C220.729 9.572 221.941 9.344 223.261 9.344ZM253.847 29.432C250.247 29.432 247.439 28.436 245.423 26.444C243.431 24.452 242.435 21.608 242.435 17.912V3.8H248.267V17.696C248.267 22.208 250.139 24.464 253.883 24.464C255.707 24.464 257.099 23.924 258.059 22.844C259.019 21.74 259.499 20.024 259.499 17.696V3.8H265.259V17.912C265.259 21.608 264.251 24.452 262.235 26.444C260.243 28.436 257.447 29.432 253.847 29.432ZM284.931 23.6H273.231L270.999 29H265.023L276.255 3.8H282.015L293.283 29H287.163L284.931 23.6ZM283.095 19.172L279.099 9.524L275.103 19.172H283.095Z" fill="#F0F0F0"/>
</svg>
